# xmcd
#
# Track frame offsets:
#	225
#	24406
#	54084
#	72259
#	91385
#	109352
#	135167
#	156160
#	171150
#	195143
#
# Disc length: 2794 seconds
#
# Revision: 1
# Processed by: cddbd v1.5.2PL0 Copyright (c) Steve Scherf et al.
# Submitted via: dBpowerAMP V4.0
#
DISCID=750ae70a
DTITLE=The Mighty Reapers - The Hurt Is On
DYEAR=1997
DGENRE=Blues
TTITLE0=It Shook Me
TTITLE1=Guess I'll Find Out Later On
TTITLE2=High Cost Of Living
TTITLE3=Big Brother
TTITLE4=Wind It Up
TTITLE5=Lonely Part Of Town
TTITLE6=The Hurt Is On
TTITLE7=It's Alright
TTITLE8=You Got To Lose
TTITLE9=Come On And Tell Me
EXTD=
EXTT0=
EXTT1=
EXTT2=
EXTT3=
EXTT4=
EXTT5=
EXTT6=
EXTT7=
EXTT8=
EXTT9=
PLAYORDER=
